<?xml version="1.0" encoding="UTF-8" standalone="no"?>
<!-- Created with Inkscape (http://www.inkscape.org/) -->

<svg
   xmlns:dc="http://purl.org/dc/elements/1.1/"
   xmlns:cc="http://creativecommons.org/ns#"
   xmlns:rdf="http://www.w3.org/1999/02/22-rdf-syntax-ns#"
   xmlns:svg="http://www.w3.org/2000/svg"
   xmlns="http://www.w3.org/2000/svg"
   xmlns:sodipodi="http://sodipodi.sourceforge.net/DTD/sodipodi-0.dtd"
   xmlns:inkscape="http://www.inkscape.org/namespaces/inkscape"
   width="2133.3333"
   height="853.33331"
   viewBox="0 0 2000 800.00001"
   id="svg2"
   version="1.1"
   inkscape:version="0.92.1 r"
   sodipodi:docname="logo.svg"
   inkscape:export-filename="/home/grant/Pictures/United Innovators/logo.png"
   inkscape:export-xdpi="90"
   inkscape:export-ydpi="90">
  <sodipodi:namedview
     units="px"
     id="base"
     pagecolor="#ffffff"
     bordercolor="#666666"
     borderopacity="1.0"
     inkscape:pageopacity="0.0"
     inkscape:pageshadow="2"
     inkscape:zoom="0.45254834"
     inkscape:cx="586.89779"
     inkscape:cy="364.15042"
     inkscape:document-units="px"
     inkscape:current-layer="svg2"
     showgrid="false"
     inkscape:window-width="1440"
     inkscape:window-height="839"
     inkscape:window-x="0"
     inkscape:window-y="24"
     inkscape:window-maximized="1"
     inkscape:snap-global="true"
     inkscape:snap-intersection-paths="true"
     inkscape:object-nodes="true"
     inkscape:snap-smooth-nodes="true"
     inkscape:object-paths="true"
     inkscape:snap-grids="true"
     showguides="true"
     inkscape:guide-bbox="true">
    <sodipodi:guide
       position="-215.95042,367.46538"
       orientation="1,0"
       id="guide4213"
       inkscape:locked="false" />
    <sodipodi:guide
       position="873.93982,292.23399"
       orientation="1,0"
       id="guide4234"
       inkscape:locked="false" />
  </sodipodi:namedview>
  <defs
     id="defs4" />
  <metadata
     id="metadata7">
    <rdf:RDF>
      <cc:Work
         rdf:about="">
        <dc:format>image/svg+xml</dc:format>
        <dc:type
           rdf:resource="http://purl.org/dc/dcmitype/StillImage" />
        <dc:title />
      </cc:Work>
    </rdf:RDF>
  </metadata>
  <g
     inkscape:label="Layer 1"
     inkscape:groupmode="layer"
     id="layer1"
     transform="translate(0,-252.36216)"
     style="display:inline" />
  <ellipse
     ry="111.72287"
     rx="130.10765"
     cy="338.96637"
     cx="1221.3536"
     id="path4560"
     style="fill:none;fill-opacity:1" />
  <ellipse
     ry="125.86501"
     rx="127.27922"
     cy="331.89532"
     cx="1318.9343"
     id="path4562"
     style="fill:none;fill-opacity:1" />
  <ellipse
     ry="38.183765"
     rx="67.882248"
     cy="476.14508"
     cx="1051.6479"
     id="path4564"
     style="fill:none;fill-opacity:1" />
  <ellipse
     ry="76.367523"
     rx="123.03661"
     cy="374.32172"
     cx="1098.317"
     id="path4566"
     style="fill:none;fill-opacity:1" />
  <ellipse
     ry="22.627417"
     rx="42.426407"
     cy="544.02734"
     cx="1225.5962"
     id="path4568"
     style="fill:none;fill-opacity:1" />
  <path
     d="m 1289.2358,597.76746 a 16.970562,9.8994951 0 0 1 -10.4762,9.14594 16.970562,9.8994951 0 0 1 -18.4943,-2.14594 16.970562,9.8994951 0 0 1 -3.6788,-10.78838 16.970562,9.8994951 0 0 1 15.6788,-6.11112 l 0,9.8995 z"
     sodipodi:end="4.712389"
     sodipodi:start="0"
     sodipodi:ry="9.8994951"
     sodipodi:rx="16.970562"
     sodipodi:cy="597.76746"
     sodipodi:cx="1272.2653"
     sodipodi:type="arc"
     id="path4570"
     style="fill:none;fill-opacity:1" />
  <path
     d="M 1324.4708,545.44153 A 192.21263,118.79394 0 0 1 1205.8148,655.19282 192.21263,118.79394 0 0 1 996.34332,629.44153 192.21263,118.79394 0 0 1 954.67686,499.98105 192.21263,118.79394 0 0 1 1132.2582,426.64759 l 0,118.79394 z"
     sodipodi:end="4.712389"
     sodipodi:start="0"
     sodipodi:ry="118.79394"
     sodipodi:rx="192.21263"
     sodipodi:cy="545.44153"
     sodipodi:cx="1132.2582"
     sodipodi:type="arc"
     id="path4572"
     style="fill:none;fill-opacity:1" />
  <path
     style="fill:none;fill-opacity:1"
     id="path5115"
     sodipodi:type="arc"
     sodipodi:cx="717.95465"
     sodipodi:cy="558.21271"
     sodipodi:rx="243.18365"
     sodipodi:ry="23.998381"
     sodipodi:start="0"
     sodipodi:end="4.712389"
     d="m 961.13831,558.21271 a 243.18365,23.998381 0 0 1 -150.1213,22.17161 243.18365,23.998381 0 0 1 -265.01917,-5.20219 243.18365,23.998381 0 0 1 -52.71559,-26.15321 243.18365,23.998381 0 0 1 224.67241,-14.81459 l -10e-6,23.99838 z" />
  <path
     style="fill:none;fill-opacity:1"
     id="path5117"
     sodipodi:type="arc"
     sodipodi:cx="1320"
     sodipodi:cy="380"
     sodipodi:rx="150"
     sodipodi:ry="134"
     sodipodi:start="4.712389"
     sodipodi:end="0"
     d="m 1320,246 a 150,134 0 0 1 150,134 l -150,0 z" />
  <rect
     style="fill:none;fill-opacity:1"
     id="rect5119"
     width="526"
     height="272"
     x="1200"
     y="276" />
  <g
     id="g4203" />
  <g
     id="g4184"
     transform="translate(32)">
    <g
       info="N:24; Pitch:11.1316275127; Pressure Angle: 20.0"
       transform="matrix(4.6379508,0,0,4.6379508,400,400)"
       inkscape:label="Gear24"
       id="g3517"
       style="fill:#ff6600">
      <path
         inkscape:connector-curvature="0"
         d="m 39.8265,-3.2071 0.5584,0.0174 0.5623,0.0701 0.5647,0.1057 0.5661,0.1356 0.5672,0.1623 0.5677,0.1868 0.5678,0.2099 0.5675,0.2319 0.5669,0.253 0.5659,0.2735 0.5645,0.2934 0.0131,0.6337 L 46.063,0 46.0586,0.6338 46.0455,1.2675 45.481,1.5609 44.9151,1.8344 44.3482,2.0874 43.7807,2.3193 43.2129,2.5292 42.6452,2.716 42.078,2.8783 41.5119,3.0139 40.9472,3.1196 40.3849,3.1897 39.8265,3.2071 38.8506,3.1285 38.7591,4.1093 38.6429,5.0874 38.502,6.0623 l -0.1655,0.971 0.963,0.1767 0.5349,0.1613 0.525,0.2133 0.518,0.2483 0.5118,0.2775 0.5058,0.3035 0.5,0.3274 0.4942,0.3497 0.4881,0.3709 0.4821,0.3911 0.4758,0.4106 0.4695,0.4295 -0.1514,0.6155 -0.1599,0.6134 -0.1682,0.6111 -0.1767,0.6087 -0.6212,0.1372 -0.6174,0.1177 -0.6131,0.0977 -0.6082,0.0771 -0.6028,0.0558 -0.5967,0.0335 -0.5898,0.01 -0.582,-0.0156 -0.5727,-0.044 -0.5613,-0.0778 -0.5439,-0.1277 -0.9223,-0.3285 -0.3422,0.9237 -0.3654,0.9147 -0.3884,0.9052 -0.4112,0.8951 0.8844,0.4199 0.4749,0.2943 0.452,0.3418 0.4361,0.3739 0.4225,0.4006 0.41,0.4241 0.3982,0.4456 0.3868,0.4657 0.3756,0.4846 0.3644,0.5025 0.3533,0.5198 0.3423,0.5363 -0.3055,0.5554 -0.3132,0.5511 -0.3207,0.5467 -0.3282,0.5423 -0.6356,-0.0282 -0.6268,-0.0462 -0.6174,-0.0643 -0.6075,-0.0829 -0.5966,-0.1021 -0.5851,-0.1221 -0.5723,-0.143 -0.5581,-0.1657 -0.5419,-0.1907 -0.522,-0.2205 -0.4923,-0.2641 -0.8059,-0.556 -0.5695,0.8036 -0.5898,0.789 -0.6094,0.7738 -0.6288,0.7582 0.7456,0.6345 0.3825,0.4072 0.3481,0.4472 0.3245,0.474 0.3044,0.4962 0.2863,0.5158 0.2693,0.5335 0.2531,0.5499 0.2373,0.5653 0.2219,0.5798 0.2068,0.5935 0.1918,0.6066 -0.4388,0.4574 -0.4451,0.4513 -0.4513,0.4451 -0.4574,0.4388 -0.6066,-0.1918 -0.5935,-0.2068 -0.5798,-0.2219 -0.5653,-0.2373 -0.5499,-0.2531 -0.5335,-0.2693 -0.5158,-0.2863 -0.4962,-0.3044 -0.474,-0.3245 -0.4472,-0.3481 -0.4072,-0.3825 -0.6345,-0.7456 -0.7582,0.6288 -0.7738,0.6094 -0.789,0.5898 -0.8036,0.5695 0.556,0.8059 0.2641,0.4923 0.2205,0.522 0.1907,0.5419 0.1657,0.5581 0.143,0.5723 0.1221,0.5851 0.1021,0.5966 0.0829,0.6075 0.0643,0.6174 0.0462,0.6268 0.0282,0.6356 -0.5423,0.3282 -0.5467,0.3207 -0.5511,0.3132 -0.5554,0.3055 -0.5363,-0.3423 -0.5198,-0.3533 -0.5025,-0.3644 -0.4846,-0.3756 -0.4657,-0.3868 -0.4456,-0.3982 -0.4241,-0.41 -0.4006,-0.4225 -0.3739,-0.4361 -0.3418,-0.452 -0.2943,-0.4749 -0.4199,-0.8844 -0.8951,0.4112 -0.9052,0.3884 -0.9147,0.3654 -0.9237,0.3422 0.3285,0.9223 0.1277,0.5439 0.0778,0.5613 0.044,0.5727 0.0156,0.582 -0.01,0.5898 -0.0335,0.5967 -0.0558,0.6028 -0.0771,0.6082 -0.0977,0.6131 -0.1177,0.6174 -0.1372,0.6212 -0.6087,0.1767 -0.6111,0.1682 -0.6134,0.1599 -0.6155,0.1514 L 10.2636,44.3352 9.853,43.8594 9.4619,43.3773 9.091,42.8892 8.7413,42.395 8.4139,41.895 8.1104,41.3892 7.8329,40.8774 7.5846,40.3594 7.3713,39.8344 7.21,39.2995 7.0333,38.3365 6.0623,38.502 5.0874,38.6429 4.1093,38.7591 3.1285,38.8506 3.2071,39.8265 3.1897,40.3849 3.1196,40.9472 3.0139,41.5119 2.8783,42.078 2.716,42.6452 2.5292,43.2129 2.3193,43.7807 2.0874,44.3482 1.8344,44.9151 1.5609,45.481 1.2675,46.0455 0.6338,46.0586 0,46.063 -0.6338,46.0586 -1.2675,46.0455 -1.5609,45.481 -1.8344,44.9151 -2.0874,44.3482 -2.3193,43.7807 -2.5292,43.2129 -2.716,42.6452 -2.8783,42.078 l -0.1356,-0.5661 -0.1057,-0.5647 -0.0701,-0.5623 -0.0174,-0.5584 0.0786,-0.9759 -0.9808,-0.0915 -0.9781,-0.1162 -0.9749,-0.1409 -0.971,-0.1655 -0.1767,0.963 -0.1613,0.5349 -0.2133,0.525 -0.2483,0.518 -0.2775,0.5118 -0.3035,0.5058 -0.3274,0.5 -0.3497,0.4942 -0.3709,0.4881 -0.3911,0.4821 -0.4106,0.4758 -0.4295,0.4695 -0.6155,-0.1514 -0.6134,-0.1599 -0.6111,-0.1682 -0.6087,-0.1767 -0.1372,-0.6212 -0.1177,-0.6174 -0.0977,-0.6131 -0.0771,-0.6082 -0.0558,-0.6028 -0.0335,-0.5967 -0.01,-0.5898 0.0156,-0.582 0.044,-0.5727 0.0778,-0.5613 0.1277,-0.5439 0.3285,-0.9223 -0.9237,-0.3422 -0.9147,-0.3654 -0.9052,-0.3884 -0.8951,-0.4112 -0.4199,0.8844 -0.2943,0.4749 -0.3418,0.452 -0.3739,0.4361 -0.4006,0.4225 -0.4241,0.41 -0.4456,0.3982 -0.4657,0.3868 -0.4846,0.3756 -0.5025,0.3644 -0.5198,0.3533 -0.5363,0.3423 -0.5554,-0.3055 -0.5511,-0.3132 -0.5467,-0.3207 -0.5423,-0.3282 0.0282,-0.6356 0.0462,-0.6268 0.0643,-0.6174 0.0829,-0.6075 0.1021,-0.5966 0.1221,-0.5851 0.143,-0.5723 0.1657,-0.5581 0.1907,-0.5419 0.2205,-0.522 0.2641,-0.4923 0.556,-0.8059 -0.8036,-0.5695 -0.789,-0.5898 -0.7738,-0.6094 -0.7582,-0.6288 -0.6345,0.7456 -0.4072,0.3825 -0.4472,0.3481 -0.474,0.3245 -0.4962,0.3044 -0.5158,0.2863 -0.5335,0.2693 -0.5499,0.2531 -0.5653,0.2373 -0.5798,0.2219 -0.5935,0.2068 -0.6066,0.1918 -0.4574,-0.4388 -0.4513,-0.4451 -0.4451,-0.4513 -0.4388,-0.4574 0.1918,-0.6066 0.2068,-0.5935 0.2219,-0.5798 0.2373,-0.5653 0.2531,-0.5499 0.2693,-0.5335 0.2863,-0.5158 0.3044,-0.4962 0.3245,-0.474 0.3481,-0.4472 0.3825,-0.4072 0.7456,-0.6345 -0.6288,-0.7582 -0.6094,-0.7738 -0.5898,-0.789 -0.5695,-0.8036 -0.8059,0.556 -0.4923,0.2641 -0.522,0.2205 -0.5419,0.1907 -0.5581,0.1657 -0.5723,0.143 -0.5851,0.1221 -0.5966,0.1021 -0.6075,0.0829 -0.6174,0.0643 -0.6268,0.0462 -0.6356,0.0282 -0.3282,-0.5423 -0.3207,-0.5467 -0.3132,-0.5511 -0.3055,-0.5554 0.3423,-0.5363 0.3533,-0.5198 0.3644,-0.5025 0.3756,-0.4846 0.3868,-0.4657 0.3982,-0.4456 0.41,-0.4241 0.4225,-0.4006 0.4361,-0.3739 0.452,-0.3418 0.4749,-0.2943 0.8844,-0.4199 -0.4112,-0.8951 -0.3884,-0.9052 -0.3654,-0.9147 -0.3422,-0.9237 -0.9223,0.3285 -0.5439,0.1277 -0.5613,0.0778 -0.5727,0.044 -0.582,0.0156 -0.5898,-0.01 -0.5967,-0.0335 -0.6028,-0.0558 -0.6082,-0.0771 -0.6131,-0.0977 -0.6174,-0.1177 -0.6212,-0.1372 -0.1767,-0.6087 -0.1682,-0.6111 -0.1599,-0.6134 -0.1514,-0.6155 0.4695,-0.4295 0.4758,-0.4106 0.4821,-0.3911 0.4881,-0.3709 0.4942,-0.3497 0.5,-0.3274 0.5058,-0.3035 0.5118,-0.2775 0.518,-0.2483 0.525,-0.2133 0.5349,-0.1613 0.963,-0.1767 -0.1655,-0.971 -0.1409,-0.9749 -0.1162,-0.9781 -0.0915,-0.9808 -0.9759,0.0786 L -40.3849,3.1897 -40.9472,3.1196 -41.5119,3.0139 -42.078,2.8783 -42.6452,2.716 -43.2129,2.5292 -43.7807,2.3193 -44.3482,2.0874 -44.9151,1.8344 -45.481,1.5609 -46.0455,1.2675 -46.0586,0.6338 -46.063,0 l 0.0044,-0.6338 0.0131,-0.6337 0.5645,-0.2934 0.5659,-0.2735 0.5669,-0.253 0.5675,-0.2319 0.5678,-0.2099 0.5677,-0.1868 0.5672,-0.1623 0.5661,-0.1356 0.5647,-0.1057 0.5623,-0.0701 0.5584,-0.0174 0.9759,0.0786 0.0915,-0.9808 0.1162,-0.9781 0.1409,-0.9749 0.1655,-0.971 -0.963,-0.1767 -0.5349,-0.1613 -0.525,-0.2133 -0.518,-0.2483 -0.5118,-0.2775 -0.5058,-0.3035 -0.5,-0.3274 -0.4942,-0.3497 -0.4881,-0.3709 -0.4821,-0.3911 -0.4758,-0.4106 -0.4695,-0.4295 0.1514,-0.6155 0.1599,-0.6134 0.1682,-0.6111 0.1767,-0.6087 0.6212,-0.1372 0.6174,-0.1177 0.6131,-0.0977 0.6082,-0.0771 0.6028,-0.0558 0.5967,-0.0335 0.5898,-0.01 0.582,0.0156 0.5727,0.044 0.5613,0.0778 0.5439,0.1277 0.9223,0.3285 0.3422,-0.9237 0.3654,-0.9147 0.3884,-0.9052 0.4112,-0.8951 -0.8844,-0.4199 -0.4749,-0.2943 -0.452,-0.3418 -0.4361,-0.3739 -0.4225,-0.4006 -0.41,-0.4241 -0.3982,-0.4456 -0.3868,-0.4657 -0.3756,-0.4846 -0.3644,-0.5025 -0.3533,-0.5198 -0.3423,-0.5363 0.3055,-0.5554 0.3132,-0.5511 0.3207,-0.5467 0.3282,-0.5423 0.6356,0.0282 0.6268,0.0462 0.6174,0.0643 0.6075,0.0829 0.5966,0.1021 0.5851,0.1221 0.5723,0.143 0.5581,0.1657 0.5419,0.1907 0.522,0.2205 0.4923,0.2641 0.8059,0.556 0.5695,-0.8036 0.5898,-0.789 0.6094,-0.7738 0.6288,-0.7582 -0.7456,-0.6345 -0.3825,-0.4072 -0.3481,-0.4472 -0.3245,-0.474 -0.3044,-0.4962 -0.2863,-0.5158 -0.2693,-0.5335 -0.2531,-0.5499 -0.2373,-0.5653 -0.2219,-0.5798 -0.2068,-0.5935 -0.1918,-0.6066 0.4388,-0.4574 0.4451,-0.4513 0.4513,-0.4451 0.4574,-0.4388 0.6066,0.1918 0.5935,0.2068 0.5798,0.2219 0.5653,0.2373 0.5499,0.2531 0.5335,0.2693 0.5158,0.2863 0.4962,0.3044 0.474,0.3245 0.4472,0.3481 0.4072,0.3825 0.6345,0.7456 0.7582,-0.6288 0.7738,-0.6094 0.789,-0.5898 0.8036,-0.5695 -0.556,-0.8059 -0.2641,-0.4923 -0.2205,-0.522 -0.1907,-0.5419 -0.1657,-0.5581 -0.143,-0.5723 -0.1221,-0.5851 -0.1021,-0.5966 -0.0829,-0.6075 -0.0643,-0.6174 -0.0462,-0.6268 -0.0282,-0.6356 0.5423,-0.3282 0.5467,-0.3207 0.5511,-0.3132 0.5554,-0.3055 0.5363,0.3423 0.5198,0.3533 0.5025,0.3644 0.4846,0.3756 0.4657,0.3868 0.4456,0.3982 0.4241,0.41 0.4006,0.4225 0.3739,0.4361 0.3418,0.452 0.2943,0.4749 0.4199,0.8844 0.8951,-0.4112 0.9052,-0.3884 0.9147,-0.3654 0.9237,-0.3422 -0.3285,-0.9223 -0.1277,-0.5439 -0.0778,-0.5613 -0.044,-0.5727 -0.0156,-0.582 0.01,-0.5898 0.0335,-0.5967 0.0558,-0.6028 0.0771,-0.6082 0.0977,-0.6131 0.1177,-0.6174 0.1372,-0.6212 0.6087,-0.1767 0.6111,-0.1682 0.6134,-0.1599 0.6155,-0.1514 0.4295,0.4695 0.4106,0.4758 0.3911,0.4821 0.3709,0.4881 0.3497,0.4942 0.3274,0.5 0.3035,0.5058 0.2775,0.5118 0.2483,0.518 0.2133,0.525 0.1613,0.5349 0.1767,0.963 0.971,-0.1655 0.9749,-0.1409 0.9781,-0.1162 0.9808,-0.0915 -0.0786,-0.9759 0.0174,-0.5584 0.0701,-0.5623 0.1057,-0.5647 0.1356,-0.5661 0.1623,-0.5672 0.1868,-0.5677 0.2099,-0.5678 0.2319,-0.5675 0.253,-0.5669 0.2735,-0.5659 0.2934,-0.5645 0.6337,-0.0131 L 0,-46.063 l 0.6338,0.0044 0.6337,0.0131 0.2934,0.5645 0.2735,0.5659 0.253,0.5669 0.2319,0.5675 0.2099,0.5678 0.1868,0.5677 0.1623,0.5672 0.1356,0.5661 0.1057,0.5647 0.0701,0.5623 0.0174,0.5584 -0.0786,0.9759 0.9808,0.0915 0.9781,0.1162 0.9749,0.1409 0.971,0.1655 0.1767,-0.963 0.1613,-0.5349 0.2133,-0.525 0.2483,-0.518 0.2775,-0.5118 0.3035,-0.5058 0.3274,-0.5 0.3497,-0.4942 0.3709,-0.4881 0.3911,-0.4821 0.4106,-0.4758 0.4295,-0.4695 0.6155,0.1514 0.6134,0.1599 0.6111,0.1682 0.6087,0.1767 0.1372,0.6212 0.1177,0.6174 0.0977,0.6131 0.0771,0.6082 0.0558,0.6028 0.0335,0.5967 0.01,0.5898 -0.0156,0.582 -0.044,0.5727 -0.0778,0.5613 -0.1277,0.5439 -0.3285,0.9223 0.9237,0.3422 0.9147,0.3654 0.9052,0.3884 0.8951,0.4112 0.4199,-0.8844 0.2943,-0.4749 0.3418,-0.452 0.3739,-0.4361 0.4006,-0.4225 0.4241,-0.41 0.4456,-0.3982 0.4657,-0.3868 0.4846,-0.3756 0.5025,-0.3644 0.5198,-0.3533 0.5363,-0.3423 0.5554,0.3055 0.5511,0.3132 0.5467,0.3207 0.5423,0.3282 -0.0282,0.6356 -0.0462,0.6268 -0.0643,0.6174 -0.0829,0.6075 -0.1021,0.5966 -0.1221,0.5851 -0.143,0.5723 -0.1657,0.5581 -0.1907,0.5419 -0.2205,0.522 -0.2641,0.4923 -0.556,0.8059 0.8036,0.5695 0.789,0.5898 0.7738,0.6094 0.7582,0.6288 0.6345,-0.7456 0.4072,-0.3825 0.4472,-0.3481 0.474,-0.3245 0.4962,-0.3044 0.5158,-0.2863 0.5335,-0.2693 0.5499,-0.2531 0.5653,-0.2373 0.5798,-0.2219 0.5935,-0.2068 0.6066,-0.1918 0.4574,0.4388 0.4513,0.4451 0.4451,0.4513 0.4388,0.4574 -0.1918,0.6066 -0.2068,0.5935 -0.2219,0.5798 -0.2373,0.5653 -0.2531,0.5499 -0.2693,0.5335 -0.2863,0.5158 -0.3044,0.4962 -0.3245,0.474 -0.3481,0.4472 -0.3825,0.4072 -0.7456,0.6345 0.6288,0.7582 0.6094,0.7738 0.5898,0.789 0.5695,0.8036 0.8059,-0.556 0.4923,-0.2641 0.522,-0.2205 0.5419,-0.1907 0.5581,-0.1657 0.5723,-0.143 0.5851,-0.1221 0.5966,-0.1021 0.6075,-0.0829 0.6174,-0.0643 0.6268,-0.0462 0.6356,-0.0282 0.3282,0.5423 0.3207,0.5467 0.3132,0.5511 0.3055,0.5554 -0.3423,0.5363 -0.3533,0.5198 -0.3644,0.5025 -0.3756,0.4846 -0.3868,0.4657 -0.3982,0.4456 -0.41,0.4241 -0.4225,0.4006 -0.4361,0.3739 -0.452,0.3418 -0.4749,0.2943 -0.8844,0.4199 0.4112,0.8951 0.3884,0.9052 0.3654,0.9147 0.3422,0.9237 0.9223,-0.3285 0.5439,-0.1277 0.5613,-0.0778 0.5727,-0.044 0.582,-0.0156 0.5898,0.01 0.5967,0.0335 0.6028,0.0558 0.6082,0.0771 0.6131,0.0977 0.6174,0.1177 0.6212,0.1372 0.1767,0.6087 0.1682,0.6111 0.1599,0.6134 0.1514,0.6155 -0.4695,0.4295 -0.4758,0.4106 -0.4821,0.3911 -0.4881,0.3709 -0.4942,0.3497 -0.5,0.3274 -0.5058,0.3035 -0.5118,0.2775 -0.518,0.2483 -0.525,0.2133 -0.5349,0.1613 -0.963,0.1767 0.1655,0.971 0.1409,0.9749 0.1162,0.9781 0.0915,0.9808 z M 0,56.692913 A 56.692913,56.692913 0 0 0 0,-56.692913 56.692913,56.692913 0 0 0 0,56.692913"
         style="fill:#ff6600;stroke:#000000;stroke-width:0.60000002"
         id="path3519" />
    </g>
    <path
       style="fill:#666666;stroke:#000000;stroke-width:4.80600405"
       d="m 389.05469,2.4023438 -13.06836,31.2324222 -3.67969,22.46875 0.67969,8.425781 -33.71875,4.439453 -1.52539,-8.314453 -9.36914,-20.751953 -20.70703,-26.785156 -21.14454,5.666015 -4.53906,33.550781 2.26172,22.654297 2.83594,7.964844 -31.41992,13.013672 -3.625,-7.636719 -14.42188,-17.61914 -26.93359,-20.511719 -18.95703,10.943359 4.29882,33.582031 8.04688,21.298831 4.80078,6.95898 -26.98047,20.70313 -5.47851,-6.43946 -18.49024,-13.28515 -31.32422,-12.84375 -15.47851,15.47851 12.84375,31.32422 13.28515,18.49024 6.43946,5.47851 -20.70313,26.98047 -6.95898,-4.80078 -21.298831,-8.04688 -33.582031,-4.29882 -10.943359,18.95703 20.511719,26.93359 17.61914,14.42188 7.636719,3.625 -13.013672,31.41992 -7.964844,-2.83594 -22.654297,-2.26172 -33.550781,4.53906 -5.666015,21.14454 26.785156,20.70703 20.751953,9.36914 8.314453,1.52539 -4.439453,33.71875 -8.425781,-0.67969 -22.46875,3.67969 -31.2324222,13.06836 v 21.89062 l 31.2324222,13.06836 22.46875,3.67969 8.425781,-0.67969 4.439453,33.71875 -8.314453,1.52539 -20.751953,9.36914 -26.785156,20.70703 5.666015,21.14454 33.550781,4.53906 22.654297,-2.26172 7.964844,-2.83594 13.013672,31.41992 -7.636719,3.625 -17.61914,14.42188 -20.511719,26.93359 10.943359,18.95703 33.582031,-4.29882 21.298831,-8.04688 6.95898,-4.80078 20.70313,26.98047 -6.43946,5.47851 -13.28515,18.49024 -12.84375,31.32422 15.47851,15.47851 31.32422,-12.84375 18.49024,-13.28515 5.47851,-6.43946 26.98047,20.70313 -4.80078,6.95898 -8.04688,21.29883 -4.29882,33.58203 18.95703,10.94336 26.93359,-20.51172 14.42188,-17.61914 3.625,-7.63672 31.41992,13.01368 -2.83594,7.96484 -2.26172,22.6543 4.53906,33.55078 21.14454,5.66601 20.70703,-26.78515 9.36914,-20.75196 1.52539,-8.31445 33.71875,4.43945 -0.67969,8.42578 3.67969,22.46875 13.06836,31.23243 h 21.89062 l 13.06836,-31.23243 3.67969,-22.46875 -0.67969,-8.42578 33.71875,-4.43945 1.52539,8.31445 9.36914,20.75196 20.70703,26.78515 21.14454,-5.66601 4.53906,-33.55078 -2.26172,-22.6543 -2.83594,-7.96484 31.41992,-13.01368 3.625,7.63672 14.42188,17.61914 26.93359,20.51172 18.95703,-10.94336 -4.29882,-33.58203 -8.04688,-21.29883 -4.80078,-6.95898 26.98047,-20.70313 5.47851,6.43946 18.49024,13.28515 31.32422,12.84375 15.47851,-15.47851 -12.84375,-31.32422 -13.28515,-18.49024 -6.43946,-5.47851 20.70313,-26.98047 6.95898,4.80078 21.29883,8.04688 33.58203,4.29882 10.94336,-18.95703 -20.51172,-26.93359 -17.61914,-14.42188 -7.63672,-3.625 13.01368,-31.41992 7.96484,2.83594 22.6543,2.26172 33.55078,-4.53906 5.66601,-21.14454 -26.78515,-20.70703 -20.75196,-9.36914 -8.31445,-1.52539 4.43945,-33.71875 8.42578,0.67969 22.46875,-3.67969 31.23243,-13.06836 v -21.89062 l -31.23243,-13.06836 -22.46875,-3.67969 -8.42578,0.67969 -4.43945,-33.71875 8.31445,-1.52539 20.75196,-9.36914 26.78515,-20.70703 -5.66601,-21.14454 -33.55078,-4.53906 -22.6543,2.26172 -7.96484,2.83594 -13.01368,-31.41992 7.63672,-3.625 17.61914,-14.42188 20.51172,-26.93359 -10.94336,-18.95703 -33.58203,4.29882 -21.29883,8.04688 -6.95898,4.80078 -20.70313,-26.98047 6.43946,-5.47851 13.28515,-18.49024 12.84375,-31.32422 -15.47851,-15.47851 -31.32422,12.84375 -18.49024,13.28515 -5.47851,6.43946 -26.98047,-20.70313 4.80078,-6.95898 8.04688,-21.298831 4.29882,-33.582031 -18.95703,-10.943359 -26.93359,20.511719 -14.42188,17.61914 -3.625,7.636719 -31.41992,-13.013672 2.83594,-7.964844 2.26172,-22.654297 -4.53906,-33.550781 -21.14454,-5.666015 -20.70703,26.785156 -9.36914,20.751953 -1.52539,8.314453 -33.71875,-4.439453 0.67969,-8.425781 -3.67969,-22.46875 L 410.94531,2.4023438 Z M 400,135.66992 A 264.3302,264.3302 0 0 1 664.33008,400 264.3302,264.3302 0 0 1 400,664.33008 264.3302,264.3302 0 0 1 135.66992,400 264.3302,264.3302 0 0 1 400,135.66992 Z"
       id="path3675"
       inkscape:connector-curvature="0" />
    <path
       sodipodi:nodetypes="ccccscccccscccccsc"
       inkscape:connector-curvature="0"
       d="m 435.83175,467.29361 -0.4072,-13.42553 v 0 m 0,0 c 0.94393,-31.81364 36.24631,-54.61892 36.24632,-79.36416 0,-49.4905 -22.11997,-87.61047 -71.61048,-87.61047 m -35.89214,180.40016 0.4072,-13.42553 v 0 m 0,0 c -0.94393,-31.81364 -36.24631,-54.61892 -36.24632,-79.36416 0,-49.4905 22.11997,-87.61047 71.61048,-87.61047 m -35.77136,180.40016 0.4072,-13.42553 v 0 m 0,0 c -0.94393,-31.81364 -36.24631,-54.61892 -36.24632,-79.36416 0,-49.4905 22.11997,-87.61047 71.61048,-87.61047"
       style="fill:none;fill-rule:evenodd;stroke:#000000;stroke-width:2;stroke-linecap:butt;stroke-linejoin:miter;stroke-miterlimit:4;stroke-dasharray:none;stroke-opacity:1"
       id="path4229" />
    <path
       sodipodi:nodetypes="cccc"
       inkscape:connector-curvature="0"
       id="rect4201"
       d="m 364.16825,489.75897 v -22.46536 h 71.6635 v 22.46536"
       style="fill:none;fill-opacity:1;stroke:#000000;stroke-width:1.98539436;stroke-miterlimit:4;stroke-dasharray:none;stroke-opacity:1" />
    <path
       sodipodi:nodetypes="ccccc"
       inkscape:connector-curvature="0"
       id="rect4203"
       d="m 364.92511,490.65897 h 70.14979 l -13.7043,22.46542 h -42.74119 z"
       style="fill:none;fill-opacity:1;stroke:#000000;stroke-width:1.96431518;stroke-miterlimit:4;stroke-dasharray:none;stroke-opacity:1" />
    <rect
       y="412.27136"
       x="391.84909"
       height="54.938183"
       width="15.456862"
       id="rect4206"
       style="fill:none;fill-opacity:1;stroke:#000000;stroke-width:2.5273025;stroke-miterlimit:4;stroke-dasharray:none;stroke-opacity:1" />
    <rect
       ry="4.871911"
       y="364.39716"
       x="377.76627"
       height="13.919745"
       width="44.467468"
       id="rect4211"
       style="fill:#ffff00;fill-opacity:1;stroke:#000000;stroke-width:1.61268067;stroke-miterlimit:4;stroke-dasharray:none;stroke-opacity:1" />
    <rect
       ry="4.871911"
       y="386.22513"
       x="377.76627"
       height="13.919745"
       width="44.467468"
       id="rect4211-5"
       style="fill:#ffff00;fill-opacity:1;stroke:#000000;stroke-width:1.61268067;stroke-miterlimit:4;stroke-dasharray:none;stroke-opacity:1" />
  </g>
  <text
     xml:space="preserve"
     style="font-style:normal;font-variant:normal;font-weight:normal;font-stretch:normal;line-height:0%;font-family:'Droid Sans';-inkscape-font-specification:'Droid Sans, Normal';text-align:start;letter-spacing:0px;word-spacing:0px;writing-mode:lr-tb;text-anchor:start;fill:#ff6600;fill-opacity:1;stroke:#ff6600;stroke-width:1.86673641px;stroke-linecap:butt;stroke-linejoin:miter;stroke-opacity:1"
     x="857.24731"
     y="342.401"
     id="text3368"><tspan
       sodipodi:role="line"
       x="857.24731"
       y="342.401"
       id="tspan3370"
       style="font-size:130.67155457px;line-height:1.25;stroke-width:1.86673641px"><tspan
         x="857.24731"
         y="342.401"
         style="font-style:normal;font-variant:normal;font-weight:bold;font-stretch:normal;font-size:210.00784302px;line-height:125%;font-family:'Droid Sans';-inkscape-font-specification:'Droid Sans, Bold';text-align:start;writing-mode:lr-tb;text-anchor:start;fill:#ff6600;fill-opacity:1;stroke:#ff6600;stroke-width:1.86673641px;stroke-opacity:1"
         id="tspan3372">United</tspan></tspan></text>
  <text
     xml:space="preserve"
     style="font-style:normal;font-variant:normal;font-weight:bold;font-stretch:normal;line-height:0%;font-family:'Droid Sans';-inkscape-font-specification:'Droid Sans, Bold';text-align:start;letter-spacing:0px;word-spacing:0px;writing-mode:lr-tb;text-anchor:start;opacity:0.98999999;fill:#666666;fill-opacity:1;stroke:#000000;stroke-width:1.86673641px;stroke-linecap:butt;stroke-linejoin:miter;stroke-opacity:1"
     x="868.4668"
     y="508.23529"
     id="text3374"><tspan
       sodipodi:role="line"
       x="868.4668"
       y="508.23529"
       id="tspan3376"
       style="font-size:210.00784302px;line-height:1.25"><tspan
         x="868.4668"
         y="508.23529"
         style="stroke-width:1.86673641px"
         id="tspan3378">Innovators</tspan></tspan></text>
</svg>
